<svg xmlns="http://www.w3.org/2000/svg" xmlns:xlink="http://www.w3.org/1999/xlink" width="25" height="22" viewBox="0 0 25 22">
  <defs>
    <clipPath id="clip-path">
      <rect id="Rectangle_22" data-name="Rectangle 22" width="25" height="22" transform="translate(-216 544)" fill="none" stroke="#707070" stroke-width="1"/>
    </clipPath>
  </defs>
  <g id="Mask_Group_9" data-name="Mask Group 9" transform="translate(216 -544)" clip-path="url(#clip-path)">
    <g id="Group_5" data-name="Group 5" transform="translate(-263.884 508.866)">
      <circle id="Ellipse_16" data-name="Ellipse 16" cx="10" cy="10" r="10" transform="translate(50.884 36.134)" fill="#707070"/>
      <g id="Group_4" data-name="Group 4">
        <path id="Path_7" data-name="Path 7" d="M58.263,40.446a4.466,4.466,0,0,1,2.468-.647,5.319,5.319,0,0,1,3.194.919A3.144,3.144,0,0,1,65.2,43.441a3.084,3.084,0,0,1-.551,1.863,6.343,6.343,0,0,1-1.239,1.174l-.6.468a1.831,1.831,0,0,0-.653.893,3.794,3.794,0,0,0-.11,1H59.735a6.687,6.687,0,0,1,.272-1.986,3.5,3.5,0,0,1,1.136-1.264l.619-.485a2.18,2.18,0,0,0,.493-.5,1.718,1.718,0,0,0,.339-1.03,1.986,1.986,0,0,0-.378-1.178,1.58,1.58,0,0,0-1.379-.532,1.517,1.517,0,0,0-1.4.655,2.521,2.521,0,0,0-.412,1.361H56.57A3.969,3.969,0,0,1,58.263,40.446Zm1.412,9.563h2.544v2.459H59.675Z" fill="#fff"/>
      </g>
    </g>
  </g>
</svg>
