<svg xmlns="http://www.w3.org/2000/svg" xmlns:xlink="http://www.w3.org/1999/xlink" width="25" height="22" viewBox="0 0 25 22">
  <defs>
    <clipPath id="clip-path">
      <rect id="Rectangle_24" data-name="Rectangle 24" width="25" height="22" transform="translate(-213 603)" fill="none" stroke="#707070" stroke-width="1"/>
    </clipPath>
  </defs>
  <g id="Mask_Group_11" data-name="Mask Group 11" transform="translate(213 -603)" clip-path="url(#clip-path)">
    <g id="Group_12" data-name="Group 12" transform="translate(-290.526 598.948)">
      <g id="Group_12-2" data-name="Group 12" transform="translate(79.526 6.052)">
        <path id="Path_11" data-name="Path 11" d="M92.955,23.293H83.337a3.816,3.816,0,0,1-3.811-3.812V9.864a3.816,3.816,0,0,1,3.811-3.812h9.617V7.846H83.337A2.021,2.021,0,0,0,81.32,9.864v9.616A2.02,2.02,0,0,0,83.337,21.5h9.617a2.02,2.02,0,0,0,2.017-2.018h1.794A3.816,3.816,0,0,1,92.955,23.293Z" transform="translate(-79.526 -6.052)" fill="#707070"/>
      </g>
      <g id="Group_13" data-name="Group 13" transform="translate(87.87 8.925)">
        <path id="Path_12" data-name="Path 12" d="M88.146,20.162V16.8l7.78-7.78,3.386,3.386L91.628,20.09Z" transform="translate(-88.146 -9.02)" fill="#707070"/>
      </g>
      <g id="Group_14" data-name="Group 14" transform="translate(96.659 6.512)">
        <rect id="Rectangle_12" data-name="Rectangle 12" width="2.19" height="4.415" transform="translate(0 1.549) rotate(-45)" fill="#707070"/>
      </g>
    </g>
  </g>
</svg>
