<svg xmlns="http://www.w3.org/2000/svg" xmlns:xlink="http://www.w3.org/1999/xlink" width="25" height="22" viewBox="0 0 25 22">
  <defs>
    <clipPath id="clip-path">
      <rect id="Rectangle_23" data-name="Rectangle 23" width="25" height="22" transform="translate(-213 574)" fill="none" stroke="#707070" stroke-width="1"/>
    </clipPath>
  </defs>
  <g id="Mask_Group_10" data-name="Mask Group 10" transform="translate(213 -574)" clip-path="url(#clip-path)">
    <g id="Group_11" data-name="Group 11" transform="translate(0 -1.491)">
      <g id="Group_10" data-name="Group 10" transform="translate(-293.641 539.186)">
        <path id="Path_9" data-name="Path 9" d="M82.641,51.563v3.06h3.824c2.935,0,4.683-3,5.5-5.3.651-1.826,1.322-3.714,2.9-4.929.907-.7,3.147-.352,4.281-.352v2.549l4.461-4.143L99.4,38.305l-.064,2.742H96.677a5.935,5.935,0,0,0-3.328.594,6.425,6.425,0,0,0-1.2.934,8.329,8.329,0,0,0-1.251,1.59,12.045,12.045,0,0,0-1.122,2.418c-.022.064-.044.126-.065.19-.534,1.62-.954,3.5-2.5,4.319C85.993,51.733,84,51.563,82.641,51.563Z" transform="translate(0)" fill="#707070"/>
        <path id="Path_10" data-name="Path 10" d="M82.641,42.958V39.9h3.824c2.935,0,4.683,3,5.5,5.3.651,1.825,1.322,3.714,2.9,4.928.907.7,3.147.353,4.281.353v-2.55l4.461,4.143L99.4,56.216l-.064-2.741H96.677a5.926,5.926,0,0,1-3.328-.6,6.419,6.419,0,0,1-1.2-.933,8.4,8.4,0,0,1-1.251-1.59,12.084,12.084,0,0,1-1.122-2.419c-.022-.063-.044-.126-.065-.19-.534-1.619-.954-3.5-2.5-4.319C85.993,42.788,84,42.958,82.641,42.958Z" transform="translate(0 0.255)" fill="#707070"/>
      </g>
    </g>
  </g>
</svg>
